<?xml version="1.0" encoding="UTF-8" standalone="no"?>
<!-- Created with Inkscape (http://www.inkscape.org/) -->

<svg
   xmlns:osb="http://www.openswatchbook.org/uri/2009/osb"
   xmlns:dc="http://purl.org/dc/elements/1.1/"
   xmlns:cc="http://creativecommons.org/ns#"
   xmlns:rdf="http://www.w3.org/1999/02/22-rdf-syntax-ns#"
   xmlns:svg="http://www.w3.org/2000/svg"
   xmlns="http://www.w3.org/2000/svg"
   xmlns:sodipodi="http://sodipodi.sourceforge.net/DTD/sodipodi-0.dtd"
   xmlns:inkscape="http://www.inkscape.org/namespaces/inkscape"
   width="210mm"
   height="297mm"
   viewBox="0 0 210 297"
   version="1.1"
   id="svg8"
   inkscape:version="0.92.3 (2405546, 2018-03-11)"
   sodipodi:docname="drawing.svg">
  <defs
     id="defs2">
    <linearGradient
       id="linearGradient6515"
       osb:paint="solid">
      <stop
         style="stop-color:#000000;stop-opacity:1;"
         offset="0"
         id="stop6513" />
    </linearGradient>
    <linearGradient
       id="linearGradient6509"
       osb:paint="solid">
      <stop
         style="stop-color:#00fb00;stop-opacity:1;"
         offset="0"
         id="stop6507" />
    </linearGradient>
    <linearGradient
       id="linearGradient5069"
       osb:paint="solid">
      <stop
         style="stop-color:#000000;stop-opacity:1;"
         offset="0"
         id="stop5067" />
    </linearGradient>
  </defs>
  <sodipodi:namedview
     id="base"
     pagecolor="#ffffff"
     bordercolor="#666666"
     borderopacity="1.0"
     inkscape:pageopacity="0.0"
     inkscape:pageshadow="2"
     inkscape:zoom="0.35"
     inkscape:cx="-111.42857"
     inkscape:cy="560"
     inkscape:document-units="mm"
     inkscape:current-layer="layer1"
     showgrid="false"
     inkscape:measure-start="0,0"
     inkscape:measure-end="0,0"
     inkscape:window-width="1280"
     inkscape:window-height="969"
     inkscape:window-x="0"
     inkscape:window-y="27"
     inkscape:window-maximized="1" />
  <metadata
     id="metadata5">
    <rdf:RDF>
      <cc:Work
         rdf:about="">
        <dc:format>image/svg+xml</dc:format>
        <dc:type
           rdf:resource="http://purl.org/dc/dcmitype/StillImage" />
        <dc:title></dc:title>
      </cc:Work>
    </rdf:RDF>
  </metadata>
  <g
     inkscape:label="Layer 1"
     inkscape:groupmode="layer"
     id="layer1">
    <ellipse
       id="path3713"
       cx="108.85715"
       cy="120.8631"
       rx="89.202377"
       ry="92.98214"
       style="stroke-width:5;fill:#ffd949;fill-opacity:1;stroke:#f4bf1a;stroke-miterlimit:4;stroke-dasharray:none;stroke-opacity:1" />
    <path
       id="path4520"
       d="m 141.10203,85.733969 c 2.70386,-3.6219 6.03463,-6.697608 9.82271,-9.072911 -0.49066,1.610057 -0.95273,3.294774 -1.38051,5.10425 -0.44588,1.908687 -0.80507,3.741734 -1.08136,5.532543 -0.97465,0.627713 -3.66423,1.816347 -8.69659,0.554041 0.40588,-0.731846 0.85176,-1.438144 1.33575,-2.117923 z m -2.42853,21.675401 c 0.68406,0.0275 1.36432,0.053 1.99599,0.053 2.65623,0.0392 5.30864,-0.26131 7.89341,-0.89491 0.1039,4.47359 -0.91938,8.89806 -2.96967,12.84117 -2.60955,0.0874 -5.19338,-0.54028 -7.49041,-1.8183 0.54877,-0.82615 0.96511,-1.73876 1.23284,-2.70145 0.53448,-2.503 0.30678,-5.11602 -0.65359,-7.47956 z m -0.70312,-15.290188 c 1.90739,0.556988 3.87669,0.850713 5.85838,0.873306 1.37576,0.01273 2.74673,-0.169945 4.0739,-0.544222 -0.1248,3.139569 0.002,6.284043 0.38206,9.401024 v 0.0304 c -3.5623,0.96269 -7.26463,1.2515 -10.92694,0.85071 -0.65549,-3.535457 -0.44113,-7.182892 0.62213,-10.611269 z m -9.8027,31.532238 c 2.32849,-0.59137 4.56075,-1.5295 6.62532,-2.78691 2.23798,1.62873 4.84085,2.64447 7.56377,2.95194 -2.80294,2.88317 -6.32425,4.90974 -10.17522,5.85869 -0.9918,0.25049 -1.98835,0.48233 -2.98588,0.71218 -0.34107,0.0786 -0.6688,0.16801 -1.02133,0.24855 z m -27.41214,-9.34403 c 6.62913,-6.83613 2.45235,-12.34709 0.92701,-13.95029 -0.20675,-0.20531 -0.38681,-0.437142 -0.53734,-0.689605 -0.0104,-0.02059 -0.0334,-0.02951 -0.0466,-0.05009 -0.0971,-0.13753 -0.20959,-0.262282 -0.33441,-0.373291 -0.0838,-0.09626 -0.17435,-0.186645 -0.27153,-0.268175 -0.11142,-0.06484 -0.22771,-0.119843 -0.34869,-0.16405 -0.14198,-0.0766 -0.291549,-0.137529 -0.445896,-0.180753 -0.02376,0 -0.04195,-0.02359 -0.06675,-0.02559 -1.638712,-0.264257 -3.299334,-0.346761 -4.95519,-0.248538 1.260473,-1.048153 2.809629,-1.658188 4.42642,-1.742676 0.121946,-0.0025 0.243905,-0.01567 0.363955,-0.03926 0.802191,-0.10805 1.476731,-0.675845 1.741601,-1.464675 0.17339,-0.289786 0.39537,-0.546175 0.65547,-0.756391 1.29192,-0.86348 2.88775,-1.097278 4.36163,-0.639506 0.42111,0.12181 0.83174,0.279968 1.22618,0.474472 0.29344,0.130654 0.58021,0.277993 0.85651,0.443035 4.78083,2.826192 6.4805,9.013003 6.4805,13.451233 0,3.39794 3.29552,8.11808 6.07465,11.49537 H 95.642209 Z m -8.266902,9.87056 h 31.219282 v 9.19669 H 92.488638 Z m 31.219282,13.79503 v 19.13896 c 0.0305,1.19157 -0.44493,2.33699 -1.30239,3.13661 -0.85747,0.79962 -2.01027,1.17389 -3.15737,1.02262 v -23.29819 z m -8.91953,0 v 23.87974 c -1.54725,0.3949 -3.04493,0.97547 -4.45975,1.73187 v -25.61161 z m -8.91951,0 v 25.61161 c -1.41577,-0.7564 -2.91252,-1.33697 -4.46072,-1.73187 v -23.87974 z m -13.380242,0 h 4.459756 v 23.29819 c -1.143279,0.15127 -2.293234,-0.21906 -3.1507,-1.01476 -0.856505,-0.79471 -1.334783,-1.93521 -1.309056,-3.12385 z M 81.403546,120.86451 c 2.064576,1.25741 4.296837,2.19554 6.625331,2.78691 v 6.98445 c -0.341085,-0.0805 -0.668821,-0.16995 -1.021334,-0.24855 -0.996568,-0.22985 -1.993135,-0.45972 -2.985885,-0.71218 -3.852871,-0.94698 -7.377032,-2.97453 -10.181894,-5.85869 2.722916,-0.30747 5.325793,-1.32321 7.563782,-2.95194 z m -4.551222,-5.97852 c 0.26867,0.96269 0.685014,1.87529 1.232836,2.70242 -2.296091,1.27998 -4.880866,1.90771 -7.490419,1.81831 -2.050291,-3.94312 -3.074481,-8.36759 -2.969678,-12.84119 2.584775,0.63263 5.237198,0.93324 7.893426,0.89394 0.631665,0 1.311913,-0.0245 1.995979,-0.053 -0.963217,2.36451 -1.194732,4.97752 -0.662144,7.48251 z m 1.989304,-12.1693 c -3.662315,0.40081 -7.364656,0.112 -10.926934,-0.8507 v -0.0304 c 0.378241,-3.113045 0.504953,-6.25261 0.379189,-9.387265 1.323354,0.377224 2.691474,0.563868 4.065321,0.556008 1.981694,-0.02262 3.951012,-0.316317 5.858383,-0.873305 1.059449,3.420514 1.274757,7.060089 0.624041,10.587692 z M 75.09547,85.733969 c 0.48494,0.678791 0.930829,1.386077 1.33764,2.117923 -5.055214,1.269188 -7.744792,0.06189 -8.696581,-0.545202 -0.276294,-1.792766 -0.628808,-3.627782 -1.081359,-5.541382 -0.42872,-1.809476 -0.892712,-3.497139 -1.380509,-5.10425 3.787131,2.375303 7.116946,5.451011 9.820809,9.072911 z m -4.442614,59.118351 c -1.860695,-2.21912 -2.814381,-5.09541 -2.661942,-8.02475 0.02662,-0.0618 0.06857,-0.11195 0.09143,-0.17683 0.401097,-1.19943 -0.21723,-2.50791 -1.380522,-2.92246 l -0.189594,-0.06 c -0.08571,-0.0314 -0.172439,-0.0569 -0.261048,-0.0775 -2.443764,-0.39096 -4.374966,-2.34387 -4.800839,-4.85571 h 0.0667 c 1.126134,-8.3e-4 2.075067,-0.86643 2.213207,-2.01773 0.137193,-1.15228 -0.579263,-2.22991 -1.671099,-2.51184 -0.651673,-0.16405 -1.272856,-0.43518 -1.839736,-0.80257 -2.086493,-1.47058 -3.337436,-3.9058 -3.345058,-6.51195 0.05812,0 0.12005,0.0235 0.178162,0.0235 1.128041,0.005 2.082684,-0.85857 2.223688,-2.01184 0.141005,-1.15425 -0.576406,-2.23482 -1.670148,-2.51773 -4.170129,-1.09728 -5.140013,-5.08659 -5.256248,-8.06801 0.620231,0.29274 1.263328,0.53047 1.92167,0.71024 0.182926,0.0472 0.369662,0.0707 0.558302,0.0718 1.124231,8.3e-4 2.074109,-0.86153 2.214161,-2.01284 0.141005,-1.15032 -0.571643,-2.22796 -1.661572,-2.51481 -4.11868,-1.092357 -5.118101,-4.982438 -5.262917,-7.948125 0.541153,0.235766 1.099457,0.430271 1.668242,0.581548 0.183878,0.04809 0.37252,0.07271 0.562114,0.07366 1.125183,0.0019 2.075061,-0.860531 2.217019,-2.010852 0.141,-1.151292 -0.571646,-2.2299 -1.661578,-2.516743 -4.286363,-1.130676 -5.196227,-5.304649 -5.271492,-8.304718 1.936914,1.251499 3.977675,2.322257 6.098467,3.200467 1.139475,0.482328 2.441864,-0.07861 2.910611,-1.253467 0.467793,-1.173893 -0.07622,-2.517741 -1.215691,-3.000069 -9.004316,-3.816395 -9.744593,-7.327286 -9.767457,-7.332201 -0.01052,-1.000023 0.44969,-1.943066 1.235699,-2.529528 0.693592,-0.525554 1.593928,-0.667993 2.408519,-0.379181 3.421276,1.171935 6.773004,2.554087 10.034223,4.138604 1.231888,3.111076 2.226545,6.317436 2.975402,9.58765 0.766,3.153314 1.276667,6.366557 1.525325,9.606316 0.132427,2.976497 0.01039,5.959872 -0.363941,8.914759 l -0.149583,1.55604 c -1.09279,8.28412 1.211876,16.66251 6.360465,23.12141 3.52037,4.0276 8.151617,6.84889 13.272583,8.08369 1.023242,0.26032 2.051238,0.49706 3.077337,0.73577 0.668821,0.15423 1.337641,0.32221 1.995032,0.48331 v 5.88324 c -3.269789,1.99612 -6.434788,4.16809 -9.481633,6.50998 -2.902042,0.13458 -5.739293,-0.91455 -7.896283,-2.92049 z m 1.766373,29.90837 c -3.055429,0 -5.11333,-0.67587 -5.797396,-1.90575 -0.997515,-1.80554 0.445875,-5.10228 1.014659,-6.10723 0.06195,-0.10506 0.115322,-0.21512 0.160062,-0.3281 3.062091,-7.89606 14.494938,-16.07207 20.227556,-19.77355 v 10.49535 c 0.04091,2.28787 0.918444,4.47555 2.458068,6.12294 0.36489,2.10908 1.019424,4.15234 1.944539,6.06988 -0.963217,0.39785 -1.947396,0.85561 -2.950639,1.38019 -1.323347,0.7063 -2.600974,1.50199 -3.824279,2.37923 -4.338771,1.05013 -8.775657,1.60908 -13.23257,1.66704 z m 11.337577,6.79484 c 0.351552,-1.10611 2.675279,-4.02858 7.761952,-6.74868 1.088021,-0.56779 2.209392,-1.06486 3.358386,-1.48726 0.767908,0.99215 1.616803,1.91555 2.538099,2.75841 -0.362045,0.36837 -0.72313,0.73382 -1.070877,1.15032 -0.892713,0.60217 -1.81497,1.1572 -2.762941,1.66213 -5.083803,2.7083 -8.741366,2.99811 -9.824619,2.66508 z m 17.928604,2.9215 c -0.0448,0.0934 -0.0819,0.18859 -0.11143,0.28781 -0.35919,0.75837 -0.76028,1.51281 -1.20046,2.2535 -2.985873,5.05806 -5.965083,7.26344 -7.063584,7.55716 -0.24771,-1.14935 0.273437,-4.88815 3.228829,-9.93737 0.796493,-1.37628 1.701582,-2.68376 2.704812,-3.90874 0.04195,-0.0383 0.07519,-0.0775 0.116232,-0.11688 l 0.05052,-0.0463 0.01624,-0.0256 c 0.02,-0.0207 0.04481,-0.0413 0.0648,-0.0639 0.498275,-0.60118 1.034671,-1.16702 1.605351,-1.69453 0.69742,0.41848 1.44055,0.81338 2.22942,1.18372 -0.38492,1.56192 -0.93464,3.07375 -1.64063,4.51091 z m 6.41286,13.14961 c -0.79171,-0.84579 -2.22939,-4.32426 -2.22939,-10.22029 0,-0.44302 0.0134,-0.88901 0.0266,-1.36053 0.67168,-1.43618 1.21665,-2.93228 1.62728,-4.46965 0.18292,0.0512 0.37061,0.0775 0.56021,0.0805 h 0.0314 c 0.18768,-0.002 0.37536,-0.0295 0.55733,-0.0805 0.40587,1.54324 0.94989,3.04427 1.62539,4.4834 0.0152,0.43911 0.0314,0.8851 0.0314,1.34678 0,5.89603 -1.43865,9.3745 -2.23036,10.22029 z m 0,-20.69302 c -5.63067,-1.45977 -10.234294,-5.62685 -12.367466,-11.19476 0.403955,0.0657 0.809818,0.10702 1.21759,0.12377 3.521316,0.0678 6.915926,1.36447 9.629326,3.67887 0.1057,0.0884 0.22008,0.16503 0.34106,0.22986 0.10766,0.0884 0.2239,0.16504 0.34586,0.22987 0.53257,0.23282 1.13471,0.23282 1.66823,0 0.12194,-0.0648 0.23724,-0.14145 0.3449,-0.22987 0.12104,-0.0648 0.23532,-0.14144 0.34107,-0.22986 2.70386,-2.33111 6.10513,-3.62778 9.62932,-3.67199 0.40776,-0.0168 0.81458,-0.0579 1.21759,-0.12377 -2.13317,5.56791 -6.7368,9.73501 -12.36748,11.19476 z m 14.78934,17.63499 c -1.09946,-0.29371 -4.08057,-2.49711 -7.06931,-7.56698 -0.44969,-0.75541 -0.86223,-1.53441 -1.23475,-2.33306 -0.0295,-0.0786 -0.0609,-0.15422 -0.0962,-0.22986 -0.70216,-1.42341 -1.24618,-2.92345 -1.62154,-4.47261 0.7898,-0.3723 1.53675,-0.76524 2.23035,-1.18371 0.57069,0.5275 1.10708,1.09334 1.60536,1.69454 0.0334,0.0393 0.0714,0.0736 0.10675,0.10999 l 0.0514,0.0551 0.0533,0.056 c 1.01942,1.23578 1.93786,2.55704 2.74579,3.95 2.95444,5.03941 3.47654,8.78017 3.22882,9.92755 z m -0.26773,-15.69192 c -0.95463,-0.50886 -1.88165,-1.06879 -2.77817,-1.67882 -0.35252,-0.41357 -0.70694,-0.7682 -1.06135,-1.13067 0.9213,-0.84285 1.77113,-1.76626 2.53905,-2.75941 1.14423,0.42143 2.2618,0.91654 3.34505,1.48333 5.0962,2.72404 7.42183,5.64651 7.77434,6.75263 -1.08233,0.34481 -4.73891,0.0551 -9.81892,-2.66019 z m 25.77629,-12.46394 c 0.0448,0.11298 0.0982,0.22298 0.16005,0.3281 0.47257,0.81436 2.03792,4.24273 1.01658,6.10033 -0.66881,1.2348 -2.73339,1.91262 -5.79739,1.91262 -4.4569,-0.057 -8.89476,-0.61396 -13.23448,-1.66211 -1.22616,-0.88019 -2.50664,-1.67686 -3.8338,-2.38414 -0.99657,-0.52654 -1.97502,-0.98235 -2.9392,-1.38021 0.92511,-1.91457 1.5806,-3.95686 1.9474,-6.06299 1.53961,-1.65034 2.41613,-3.84195 2.45235,-6.13179 v -10.49631 c 5.7269,3.71129 17.17116,11.8873 20.22849,19.78336 z m 12.3732,-87.019799 c -1.13852,0.482329 -1.68253,1.826176 -1.21474,3.00007 0.4678,1.174881 1.77114,1.735795 2.90966,1.253467 2.12651,-0.883125 4.17203,-1.960754 6.11276,-3.219135 -0.0648,2.989272 -0.96322,7.169128 -5.28484,8.314546 -1.10993,0.270143 -1.84257,1.359559 -1.69967,2.525592 0.14291,1.165064 1.1147,2.032466 2.25417,2.010852 0.1877,-9.17e-4 0.37443,-0.02557 0.55545,-0.07366 0.57163,-0.153246 1.13185,-0.350697 1.6749,-0.58842 -0.12675,2.960781 -1.11469,6.85577 -5.26958,7.954997 -1.08993,0.28685 -1.80162,1.36448 -1.66157,2.51481 0.14101,1.15132 1.08992,2.01381 2.21511,2.01284 0.18769,-8.4e-4 0.37538,-0.0245 0.55735,-0.0717 0.66502,-0.18076 1.31287,-0.42143 1.93787,-0.71712 -0.10675,2.97749 -1.06801,6.96876 -5.27815,8.08372 -1.09471,0.28291 -1.81211,1.36348 -1.67112,2.51774 0.14101,1.15426 1.09565,2.01773 2.22369,2.01184 0.0582,0 0.11818,-0.0186 0.17626,-0.0226 -0.02,2.63268 -1.29669,5.08656 -3.41364,6.55909 -0.54499,0.34579 -1.13948,0.60119 -1.76163,0.75443 -1.09278,0.28195 -1.80924,1.35956 -1.6711,2.51186 0.13721,1.15229 1.08707,2.01773 2.21226,2.01773 h 0.0677 c -0.42587,2.51185 -2.35708,4.46572 -4.8018,4.85571 -0.0914,0.0226 -0.18292,0.051 -0.27153,0.0835 -0.0668,0.0177 -0.13148,0.0363 -0.17815,0.0551 -1.16426,0.41357 -1.78163,1.72204 -1.38052,2.92246 0.0219,0.0639 0.0648,0.11493 0.0914,0.17683 0.15243,2.92934 -0.80221,5.80465 -2.6629,8.02377 -2.15986,1.99906 -4.9952,3.04034 -7.89438,2.89987 -3.04398,-2.34388 -6.20708,-4.51976 -9.47497,-6.51882 v -5.88325 c 0.66979,-0.1611 1.33859,-0.32907 2.00742,-0.4833 1.0261,-0.22987 2.0541,-0.47547 3.07734,-0.73578 5.12001,-1.2348 9.75222,-4.05609 13.27258,-8.08369 5.14859,-6.45889 7.45326,-14.83729 6.35951,-23.12141 l -0.14959,-1.55604 c -0.37441,-2.954885 -0.49541,-5.938259 -0.36299,-8.914756 0.24868,-3.23976 0.7584,-6.453002 1.52534,-9.606317 0.74886,-3.270213 1.74351,-6.476573 2.97445,-9.587659 3.26217,-1.580582 6.61294,-2.958808 10.03518,-4.12681 0.81458,-0.28881 1.71395,-0.147352 2.40852,0.379183 0.74598,0.554042 1.19758,1.436187 1.2214,2.384142 0,0.03441 -0.60404,3.600286 -9.76745,7.486426 z m 0,0"
       inkscape:connector-curvature="0"
       style="fill:#f4bf1a;stroke-width:0.24766105" />
  </g>
</svg>
