<?xml version="1.0" encoding="UTF-8" standalone="no"?>
<!-- Created with Inkscape (http://www.inkscape.org/) -->

<svg
   xmlns:osb="http://www.openswatchbook.org/uri/2009/osb"
   xmlns:dc="http://purl.org/dc/elements/1.1/"
   xmlns:cc="http://creativecommons.org/ns#"
   xmlns:rdf="http://www.w3.org/1999/02/22-rdf-syntax-ns#"
   xmlns:svg="http://www.w3.org/2000/svg"
   xmlns="http://www.w3.org/2000/svg"
   xmlns:sodipodi="http://sodipodi.sourceforge.net/DTD/sodipodi-0.dtd"
   xmlns:inkscape="http://www.inkscape.org/namespaces/inkscape"
   width="210mm"
   height="297mm"
   viewBox="0 0 210 297"
   version="1.1"
   id="svg8"
   inkscape:version="0.92.3 (2405546, 2018-03-11)"
   sodipodi:docname="good-luck.svg">
  <defs
     id="defs2">
    <linearGradient
       id="linearGradient6515"
       osb:paint="solid">
      <stop
         style="stop-color:#000000;stop-opacity:1;"
         offset="0"
         id="stop6513" />
    </linearGradient>
    <linearGradient
       id="linearGradient6509"
       osb:paint="solid">
      <stop
         style="stop-color:#00fb00;stop-opacity:1;"
         offset="0"
         id="stop6507" />
    </linearGradient>
    <linearGradient
       id="linearGradient5069"
       osb:paint="solid">
      <stop
         style="stop-color:#000000;stop-opacity:1;"
         offset="0"
         id="stop5067" />
    </linearGradient>
  </defs>
  <sodipodi:namedview
     id="base"
     pagecolor="#ffffff"
     bordercolor="#666666"
     borderopacity="1.0"
     inkscape:pageopacity="0.0"
     inkscape:pageshadow="2"
     inkscape:zoom="0.35"
     inkscape:cx="-46.922614"
     inkscape:cy="560"
     inkscape:document-units="mm"
     inkscape:current-layer="g6581"
     showgrid="false"
     inkscape:measure-start="0,0"
     inkscape:measure-end="0,0"
     inkscape:window-width="1280"
     inkscape:window-height="969"
     inkscape:window-x="0"
     inkscape:window-y="27"
     inkscape:window-maximized="1" />
  <metadata
     id="metadata5">
    <rdf:RDF>
      <cc:Work
         rdf:about="">
        <dc:format>image/svg+xml</dc:format>
        <dc:type
           rdf:resource="http://purl.org/dc/dcmitype/StillImage" />
        <dc:title></dc:title>
      </cc:Work>
    </rdf:RDF>
  </metadata>
  <g
     inkscape:label="Layer 1"
     inkscape:groupmode="layer"
     id="layer1">
    <g
       id="g6581"
       transform="translate(0,11.339286)">
      <ellipse
         style="fill:#ffd949;fill-opacity:1;stroke:#f4bf1a;stroke-width:5;stroke-miterlimit:4;stroke-dasharray:none;stroke-opacity:1"
         ry="92.98214"
         rx="89.202377"
         cy="120.8631"
         cx="108.85715"
         id="path3713" />
      <g
         id="g7232"
         transform="matrix(0.21454459,0,0,0.21454459,58.510719,70.51667)">
        <g
           id="g7175">
	<g
   id="g7173">
		<path
   id="path7171"
   d="m 469.333,170.667 c 0,-20 -6.604,-36.615 -19.083,-48.042 -11.406,-10.438 -26.927,-15.958 -44.885,-15.958 h -0.031 c -20.853,0.008 -49.091,14.943 -76.987,34.32 C 347.725,113.091 362.66,84.853 362.667,64 362.677,46.031 357.157,30.5 346.709,19.083 335.281,6.604 318.667,0 298.667,0 277.323,0 250.552,14.729 234.667,28.031 218.781,14.729 192.01,0 170.667,0 c -38.865,0 -63.99,25.125 -64,63.99 -0.012,20.839 14.924,49.081 34.309,76.986 -27.892,-19.376 -56.121,-34.309 -76.954,-34.309 -0.01,0 -0.021,0 -0.021,0 -38.875,0.01 -64,25.135 -64,64 0,21.344 14.729,48.115 28.031,64 C 14.729,250.552 0,277.323 0,298.667 c 0,38.875 25.125,64 64,64 20.845,0 49.081,-14.932 76.975,-34.309 -19.376,27.895 -34.309,56.13 -34.309,76.975 0,38.875 25.125,64 64,64 21.344,0 48.115,-14.729 64,-28.031 15.885,13.302 42.656,28.031 64,28.031 38.865,0 63.99,-25.125 64,-63.99 0.005,-10.124 -3.599,-22.029 -9.439,-34.759 25.612,26.746 53.638,59.461 75.064,93.738 2.021,3.24 5.5,5.01 9.052,5.01 1.927,0 3.885,-0.521 5.646,-1.625 4.99,-3.115 6.51,-9.698 3.385,-14.698 -24.319,-38.915 -56.159,-75.348 -84.107,-103.936 15.842,8.227 30.76,13.595 43.044,13.592 0.01,0 0.021,0 0.021,0 38.875,-0.01 64,-25.135 64,-64 0,-21.344 -14.729,-48.115 -28.031,-64 13.303,-15.884 28.032,-42.655 28.032,-63.998 z"
   inkscape:connector-curvature="0"
   style="fill:#f4bf1a" />

	</g>

</g>
        <g
           id="g7177">
</g>
        <g
           id="g7179">
</g>
        <g
           id="g7181">
</g>
        <g
           id="g7183">
</g>
        <g
           id="g7185">
</g>
        <g
           id="g7187">
</g>
        <g
           id="g7189">
</g>
        <g
           id="g7191">
</g>
        <g
           id="g7193">
</g>
        <g
           id="g7195">
</g>
        <g
           id="g7197">
</g>
        <g
           id="g7199">
</g>
        <g
           id="g7201">
</g>
        <g
           id="g7203">
</g>
        <g
           id="g7205">
</g>
      </g>
    </g>
  </g>
</svg>
